<?xml version="1.0" encoding="UTF-8"?>
<svg id="_レイヤー_1" xmlns="http://www.w3.org/2000/svg" version="1.1" viewBox="0 0 1206.1 350.1">
  <!-- Generator: Adobe Illustrator 30.1.0, SVG Export Plug-In . SVG Version: 2.1.1 Build 136)  -->
  <defs>
    <style>
      .st0 {
        fill: #ff747d;
      }

      .st1 {
        fill: #333;
      }
    </style>
  </defs>
  <g>
    <path class="st0" d="M265,249.3l-28.2-19.1c-1.9-1.2-4.3-1.4-6.4-.5l-38.5,18.3c-10.4,4.9-22.2,3.3-30.7-3.2-3.6-2.8-6.6-6.4-8.6-10.7-2-4.2-2.9-8.5-2.9-13,0-6.5,2.3-12.7,6.2-17.8,2.8-3.6,6.4-6.6,10.7-8.6l52.6-25c4.5-2.2,8.7-4.7,12.6-7.7,22.8-17.8,32.3-48.6,22.4-76.4-1.2-3.6-5.4-5.4-8.8-3.7l-2.1,1c-2.7-4.3-8.4-11.5-18.9-15.5-14.7-5.8-33-3.4-54.6,6.8l-52.3,24c-6.1,2.8-11.8,6.2-17.1,10.1-8.4,6.2-20.5,16.6-30.1,31.2-11.5,17.3-17.2,36.1-16.5,56.1.1,3.4,3,6.1,6.4,6,.8,0,1.7-.2,2.5-.6,2.2-1,3.6-3.2,3.5-5.8-1.2-39.3,25.6-65,41.7-76.9,4.6-3.4,9.7-6.3,14.9-8.7l52.3-24h0c10.1-4.8,19.3-7.6,27.6-8.4,6.4-.6,12.1,0,17.1,1.9,6.6,2.5,10.4,6.7,12.3,9.5l-94.7,45c-21.1,10.1-36.2,27.7-43.4,48.2-7.3,20.4-6.8,43.6,3.3,64.7,10.1,21.1,27.7,36.2,48.2,43.4,20.4,7.3,43.6,6.8,64.7-3.3l54-25.7c4.5-2.2,4.9-8.3.8-11.1h.1ZM205.7,118.3c3.4-1.5,7.3-.2,9,3.2,1.5,3.4.1,7.3-3.2,9-3.4,1.5-7.3.2-9-3.2-1.5-3.4-.2-7.3,3.2-9ZM142.2,143.3c3.4-1.5,7.3-.1,9,3.2l11.2,23.5c1.5,3.4.1,7.3-3.2,9-3.4,1.5-7.3.1-9-3.2l-11.2-23.5c-1.5-3.4-.1-7.3,3.2-9ZM137.7,238.4l-21.3,10.1c-3.4,1.5-7.3.1-9-3.2-1.5-3.4-.1-7.3,3.2-9l21.3-10.1c3.4-1.5,7.3-.1,9,3.2,1.5,3.4.1,7.3-3.2,9ZM140.7,203.2c-1.5.7-3.4.8-5.1.3l-25.9-9.3c-3.5-1.2-5.4-5-4.1-8.5,1.2-3.5,5-5.4,8.5-4.1l25.9,9.3c3.5,1.2,5.4,5,4.1,8.5-.6,1.7-1.9,3.1-3.4,3.8ZM162.2,261.3l-5.9,16.5c-.6,1.7-1.9,3.1-3.4,3.8s-3.4.8-5.1.3c-3.5-1.2-5.4-5-4.1-8.5l5.9-16.5c1.2-3.5,5-5.4,8.5-4.1,3.5,1.2,5.4,5,4.1,8.5h0ZM206.8,279.2c-3.4,1.5-7.3.1-9-3.2l-5.1-10.7c-1.5-3.4-.1-7.3,3.2-9,3.4-1.5,7.3-.1,9,3.2l5.1,10.7c1.5,3.4.1,7.3-3.2,9h0Z"/>
    <path class="st0" d="M275.2,190.3l-33.3-22.7c-3.1-2.1-7.2-1.2-9.3,1.7s-1.2,7.2,1.7,9.3l33.3,22.7c2.1,1.4,4.5,1.5,6.7.5,1-.5,2-1.2,2.7-2.3,2.1-3.1,1.2-7.2-1.7-9.3h-.1Z"/>
    <path class="st0" d="M248.4,214.1c1-.5,2-1.2,2.7-2.3,2.1-3.1,1.2-7.2-1.7-9.3l-33.3-22.7c-3.1-2.1-7.2-1.2-9.3,1.7s-1.2,7.2,1.7,9.3l33.3,22.7c2.1,1.4,4.5,1.5,6.6.5h0Z"/>
    <path class="st0" d="M190.1,192.2c-3.1-2.1-7.2-1.2-9.3,1.7s-1.2,7.2,1.7,9.3l33.3,22.7c2.1,1.4,4.5,1.5,6.6.5s2-1.2,2.7-2.3c2.1-3.1,1.2-7.2-1.7-9.3l-33.3-22.7h0Z"/>
    <path class="st0" d="M328.4,157.1c-3-20.3-9.9-39.4-20.5-56.8-10.3-16.8-23.5-31.3-39.3-43-15.8-11.7-33.5-20.3-52.6-25.1-19.7-5-40-6.2-60.3-3.1-20.3,3-39.4,9.9-56.8,20.5-16.8,10.3-31.3,23.5-43,39.3-11.7,15.8-20.3,33.5-25.1,52.6-5,19.7-6.2,40-3.1,60.3,3,20.3,9.9,39.4,20.5,56.8,10.3,16.8,23.5,31.3,39.3,43,15.8,11.7,33.5,20.3,52.6,25.1,12.3,3.2,25,4.8,37.8,4.8s15-.5,22.5-1.6c20.3-3,39.4-9.9,56.8-20.5,16.8-10.3,31.3-23.5,43-39.3,11.7-15.8,20.3-33.5,25.1-52.6,5-19.7,6.2-40,3.1-60.3h0ZM306,212.5c-4.2,16.6-11.6,31.9-21.8,45.7-10.3,13.8-22.8,25.3-37.3,34.2-15.1,9.2-31.7,15.2-49.3,17.8-17.7,2.7-35.3,1.6-52.4-2.7-16.6-4.2-31.9-11.6-45.7-21.8-13.8-10.3-25.3-22.8-34.2-37.3-9.2-15.1-15.2-31.7-17.8-49.3-2.7-17.7-1.6-35.3,2.7-52.4,4.2-16.6,11.6-31.9,21.8-45.7,10.3-13.8,22.8-25.3,37.3-34.2,15.1-9.2,31.7-15.2,49.3-17.8,6.6-1,13.1-1.4,19.7-1.4,11,0,22,1.4,32.7,4.2,16.6,4.2,31.9,11.6,45.7,21.8,13.8,10.3,25.3,22.8,34.2,37.3,9.2,15.1,15.2,31.7,17.8,49.3,2.7,17.7,1.6,35.3-2.7,52.4h0Z"/>
  </g>
  <rect class="st1" x="374" y="58.2" width="52" height="244.4" rx="7.4" ry="7.4"/>
  <rect class="st1" x="1108.2" y="58.8" width="52" height="244.3" rx="7.4" ry="7.4"/>
  <path class="st1" d="M643,199.6c-3.8-9-9.2-16.9-15.8-23.6-6.7-6.7-14.6-12-23.6-15.8s-18.7-5.8-28.8-5.8h-48.2c-3.1,0-6-.6-8.6-1.6-2.7-1.1-5-2.7-7-4.7-2-2-3.6-4.4-4.7-7.1s-1.6-5.7-1.6-8.7.6-6,1.6-8.6c1.1-2.7,2.7-5,4.7-7,2-2,4.3-3.6,7-4.7s5.6-1.6,8.6-1.6h104.6c4.2,0,7.6-3.4,7.6-7.6v-36.7c0-4.2-3.4-7.6-7.6-7.6h-104.6c-10.2,0-19.9,2-28.8,5.9s-16.8,9.3-23.5,15.9c-6.7,6.7-12,14.6-15.9,23.5-3.9,9-5.9,18.6-5.9,28.8s2,19.9,5.9,28.8c3.9,9,9.3,16.9,15.9,23.6s14.6,12,23.5,15.9c9,3.9,18.6,5.9,28.8,5.9h48.2c3.1,0,6,.6,8.6,1.6,2.7,1.1,5,2.7,7,4.7,2,2,3.6,4.3,4.7,7s1.6,5.6,1.6,8.6-.6,6-1.6,8.6c-1.1,2.7-2.7,5-4.7,7-2,2-4.3,3.6-7,4.7s-5.6,1.6-8.6,1.6h-101.1c-4.2,0-7.6,3.4-7.6,7.6v36.7c0,4.2,3.4,7.6,7.6,7.6h101.1c10.2,0,19.9-2,28.8-5.9,9-3.9,16.9-9.3,23.6-15.9s12-14.6,15.8-23.5c3.8-9,5.8-18.6,5.8-28.8s-2-19.9-5.8-28.8h0Z"/>
  <path class="st1" d="M732.3,110.2h105.3c4.2,0,7.6-3.4,7.6-7.6v-36.7c0-4.2-3.4-7.6-7.6-7.6h-153.4c-4.2,0-7.6,3.4-7.6,7.6v229c0,4.2,3.4,7.6,7.6,7.6h153.4c4.2,0,7.6-3.4,7.6-7.6v-36.7c0-4.2-3.4-7.6-7.6-7.6h-105.3c-2.1,0-3.8-1.7-3.8-3.8v-36.5c0-2.1,1.7-3.8,3.8-3.8h67.5c4.2,0,7.6-3.4,7.6-7.6v-36.7c0-4.2-3.4-7.6-7.6-7.6h-67.5c-2.1,0-3.8-1.7-3.8-3.8v-36.7c0-2.1,1.7-3.8,3.8-3.8h0Z"/>
  <path class="st1" d="M1065,118.7c-5.1-11.8-12.1-22.3-21-31.2-8.8-8.8-19.3-15.9-31.2-21-11.8-5.1-24.7-7.7-38.3-7.7s-26.3,2.6-38.3,7.7c-11.8,5.1-22.3,12.1-31.2,21.1-8.7,8.8-15.8,19.3-21,31.2s-7.7,24.7-7.7,38.3v138.5c0,4.2,3.4,7.6,7.6,7.6h36.5c4.2,0,7.6-3.4,7.6-7.6v-36.7c0-2.1,1.7-3.8,3.8-3.8h84.8c2.1,0,3.8,1.7,3.8,3.8v36.7c0,4.2,3.4,7.6,7.6,7.6h36.7c4.2,0,7.6-3.4,7.6-7.6v-138.5c0-13.5-2.6-26.3-7.7-38.3h.2ZM1020.8,156.8v42.4c0,2.1-1.7,3.8-3.8,3.8h-84.8c-2.1,0-3.8-1.7-3.8-3.8v-42.4c0-6.3,1.2-12.3,3.6-17.9,2.4-5.7,5.8-10.6,9.9-14.7s9.2-7.5,14.7-9.9c5.6-2.4,11.6-3.6,17.9-3.6s12.3,1.2,17.9,3.6c5.7,2.4,10.6,5.8,14.7,9.9,4.1,4.1,7.5,9.2,9.9,14.7,2.4,5.6,3.6,11.6,3.6,17.9h.2Z"/>
</svg>